<svg width="535" height="200" fill="none" xmlns="http://www.w3.org/2000/svg"><path d="M90.432 134V65.84h13.248v56.544h34.752V134h-48Zm77.768.96c-4.032 0-7.68-.672-10.944-2.016-3.264-1.408-6.048-3.296-8.352-5.664a27.024 27.024 0 0 1-5.376-8.256c-1.216-3.136-1.824-6.432-1.824-9.888 0-4.8 1.056-9.184 3.168-13.152 2.176-3.968 5.248-7.136 9.216-9.504 4.032-2.432 8.768-3.648 14.208-3.648 5.504 0 10.208 1.216 14.112 3.648 3.904 2.368 6.88 5.536 8.928 9.504 2.112 3.904 3.168 8.128 3.168 12.672 0 .768-.032 1.568-.096 2.4a48.249 48.249 0 0 1-.192 1.92h-38.88c.256 2.56.992 4.8 2.208 6.72 1.28 1.92 2.88 3.392 4.8 4.416a14.36 14.36 0 0 0 6.336 1.44c2.56 0 4.96-.608 7.2-1.824 2.304-1.28 3.872-2.944 4.704-4.992l11.04 3.072c-1.216 2.56-2.976 4.832-5.28 6.816-2.24 1.984-4.896 3.552-7.968 4.704-3.072 1.088-6.464 1.632-10.176 1.632Zm-13.152-30.144h26.304c-.256-2.56-.992-4.768-2.208-6.624-1.152-1.92-2.688-3.392-4.608-4.416-1.92-1.088-4.064-1.632-6.432-1.632-2.304 0-4.416.544-6.336 1.632-1.856 1.024-3.392 2.496-4.608 4.416-1.152 1.856-1.856 4.064-2.112 6.624Zm66.972 29.472c-3.328 0-6.4-.64-9.216-1.92-2.752-1.344-5.152-3.2-7.2-5.568-1.984-2.368-3.52-5.088-4.608-8.16-1.088-3.072-1.632-6.336-1.632-9.792 0-3.648.576-7.04 1.728-10.176 1.152-3.136 2.752-5.888 4.8-8.256 2.112-2.432 4.576-4.288 7.392-5.568 2.88-1.344 6.048-2.016 9.504-2.016 3.904 0 7.328.896 10.272 2.688 2.944 1.728 5.376 4.064 7.296 7.008v-8.832h11.232V131.6c0 4.992-1.216 9.248-3.648 12.768-2.368 3.584-5.664 6.304-9.888 8.16-4.224 1.92-9.024 2.88-14.4 2.88-5.44 0-10.048-.928-13.824-2.784-3.776-1.792-7.008-4.352-9.696-7.68l7.008-6.816c1.92 2.368 4.32 4.224 7.2 5.568a22.166 22.166 0 0 0 9.312 2.016c2.752 0 5.248-.512 7.488-1.536 2.304-.96 4.128-2.496 5.472-4.608 1.408-2.048 2.112-4.704 2.112-7.968v-6.336c-1.664 2.88-4.032 5.12-7.104 6.72a20.818 20.818 0 0 1-9.6 2.304Zm4.32-10.272c1.408 0 2.752-.224 4.032-.672a14.365 14.365 0 0 0 6.432-4.512c.832-1.088 1.472-2.176 1.92-3.264v-12c-.768-1.984-1.856-3.712-3.264-5.184-1.344-1.472-2.88-2.592-4.608-3.36a11.651 11.651 0 0 0-5.28-1.248c-1.984 0-3.776.416-5.376 1.248-1.6.832-2.976 2.016-4.128 3.552-1.152 1.472-2.048 3.136-2.688 4.992-.576 1.792-.864 3.68-.864 5.664 0 2.048.352 3.968 1.056 5.76.704 1.792 1.664 3.36 2.88 4.704a14.36 14.36 0 0 0 4.416 3.168 13.324 13.324 0 0 0 5.472 1.152ZM263.184 134V83.696h12.864V134h-12.864Zm0-57.312V63.92h12.864v12.768h-12.864Zm42.997 58.272c-4.288 0-8.384-.704-12.288-2.112-3.904-1.408-7.264-3.488-10.08-6.24l4.608-8.352c3.008 2.432 5.952 4.224 8.832 5.376 2.944 1.152 5.76 1.728 8.448 1.728 2.496 0 4.48-.448 5.952-1.344 1.536-.896 2.304-2.24 2.304-4.032 0-1.216-.416-2.144-1.248-2.784-.832-.704-2.048-1.312-3.648-1.824a139.7 139.7 0 0 0-5.664-1.728c-3.712-1.216-6.816-2.4-9.312-3.552-2.496-1.152-4.384-2.592-5.664-4.32-1.216-1.792-1.824-4.064-1.824-6.816 0-3.328.832-6.176 2.496-8.544 1.728-2.432 4.096-4.32 7.104-5.664 3.072-1.344 6.656-2.016 10.752-2.016 3.584 0 6.976.576 10.176 1.728 3.2 1.088 6.112 2.88 8.736 5.376L320.677 98c-2.56-1.984-4.992-3.424-7.296-4.32-2.304-.96-4.64-1.44-7.008-1.44-1.344 0-2.624.16-3.84.48-1.152.32-2.112.864-2.88 1.632-.704.704-1.056 1.728-1.056 3.072 0 1.216.32 2.176.96 2.88.704.64 1.728 1.216 3.072 1.728 1.408.512 3.104 1.088 5.088 1.728 4.032 1.152 7.424 2.336 10.176 3.552 2.816 1.216 4.928 2.72 6.336 4.512 1.408 1.728 2.112 4.128 2.112 7.2 0 4.992-1.824 8.896-5.472 11.712-3.648 2.816-8.544 4.224-14.688 4.224Zm28.813-71.04h12.864v53.952c0 2.304.384 3.872 1.152 4.704.768.768 1.824 1.152 3.168 1.152 1.024 0 2.08-.128 3.168-.384s2.048-.576 2.88-.96l1.728 9.792c-1.728.832-3.744 1.472-6.048 1.92-2.304.448-4.384.672-6.24.672-4.032 0-7.168-1.056-9.408-3.168-2.176-2.176-3.264-5.248-3.264-9.216V63.92Zm50.341 1.92h13.44L423.831 134h-13.632l-6.336-16.992h-23.808L373.815 134h-13.632l25.152-68.16Zm16.128 41.856-9.408-28.128-9.792 28.128h19.2ZM431.307 134V65.84h13.248V134h-13.248Z" fill="#d2fef0"/><path stroke="#d2fef0" stroke-width="16" d="M195 8H0M195 192H0M8 200V5M340 192h195M340 8h195M527 0v195"/><path d="M90.432 134V65.84h13.248v56.544h34.752V134h-48Zm77.768.96c-4.032 0-7.68-.672-10.944-2.016-3.264-1.408-6.048-3.296-8.352-5.664a27.024 27.024 0 0 1-5.376-8.256c-1.216-3.136-1.824-6.432-1.824-9.888 0-4.8 1.056-9.184 3.168-13.152 2.176-3.968 5.248-7.136 9.216-9.504 4.032-2.432 8.768-3.648 14.208-3.648 5.504 0 10.208 1.216 14.112 3.648 3.904 2.368 6.88 5.536 8.928 9.504 2.112 3.904 3.168 8.128 3.168 12.672 0 .768-.032 1.568-.096 2.4a48.249 48.249 0 0 1-.192 1.92h-38.88c.256 2.56.992 4.8 2.208 6.72 1.28 1.92 2.88 3.392 4.8 4.416a14.36 14.36 0 0 0 6.336 1.44c2.56 0 4.96-.608 7.2-1.824 2.304-1.28 3.872-2.944 4.704-4.992l11.04 3.072c-1.216 2.56-2.976 4.832-5.28 6.816-2.24 1.984-4.896 3.552-7.968 4.704-3.072 1.088-6.464 1.632-10.176 1.632Zm-13.152-30.144h26.304c-.256-2.56-.992-4.768-2.208-6.624-1.152-1.92-2.688-3.392-4.608-4.416-1.92-1.088-4.064-1.632-6.432-1.632-2.304 0-4.416.544-6.336 1.632-1.856 1.024-3.392 2.496-4.608 4.416-1.152 1.856-1.856 4.064-2.112 6.624Zm66.972 29.472c-3.328 0-6.4-.64-9.216-1.92-2.752-1.344-5.152-3.2-7.2-5.568-1.984-2.368-3.52-5.088-4.608-8.16-1.088-3.072-1.632-6.336-1.632-9.792 0-3.648.576-7.04 1.728-10.176 1.152-3.136 2.752-5.888 4.8-8.256 2.112-2.432 4.576-4.288 7.392-5.568 2.88-1.344 6.048-2.016 9.504-2.016 3.904 0 7.328.896 10.272 2.688 2.944 1.728 5.376 4.064 7.296 7.008v-8.832h11.232V131.6c0 4.992-1.216 9.248-3.648 12.768-2.368 3.584-5.664 6.304-9.888 8.16-4.224 1.92-9.024 2.88-14.4 2.88-5.44 0-10.048-.928-13.824-2.784-3.776-1.792-7.008-4.352-9.696-7.68l7.008-6.816c1.92 2.368 4.32 4.224 7.2 5.568a22.166 22.166 0 0 0 9.312 2.016c2.752 0 5.248-.512 7.488-1.536 2.304-.96 4.128-2.496 5.472-4.608 1.408-2.048 2.112-4.704 2.112-7.968v-6.336c-1.664 2.88-4.032 5.12-7.104 6.72a20.818 20.818 0 0 1-9.6 2.304Zm4.32-10.272c1.408 0 2.752-.224 4.032-.672a14.365 14.365 0 0 0 6.432-4.512c.832-1.088 1.472-2.176 1.92-3.264v-12c-.768-1.984-1.856-3.712-3.264-5.184-1.344-1.472-2.88-2.592-4.608-3.36a11.651 11.651 0 0 0-5.28-1.248c-1.984 0-3.776.416-5.376 1.248-1.6.832-2.976 2.016-4.128 3.552-1.152 1.472-2.048 3.136-2.688 4.992-.576 1.792-.864 3.68-.864 5.664 0 2.048.352 3.968 1.056 5.76.704 1.792 1.664 3.36 2.88 4.704a14.36 14.36 0 0 0 4.416 3.168 13.324 13.324 0 0 0 5.472 1.152ZM263.184 134V83.696h12.864V134h-12.864Zm0-57.312V63.92h12.864v12.768h-12.864Zm42.997 58.272c-4.288 0-8.384-.704-12.288-2.112-3.904-1.408-7.264-3.488-10.08-6.24l4.608-8.352c3.008 2.432 5.952 4.224 8.832 5.376 2.944 1.152 5.76 1.728 8.448 1.728 2.496 0 4.48-.448 5.952-1.344 1.536-.896 2.304-2.24 2.304-4.032 0-1.216-.416-2.144-1.248-2.784-.832-.704-2.048-1.312-3.648-1.824a139.7 139.7 0 0 0-5.664-1.728c-3.712-1.216-6.816-2.4-9.312-3.552-2.496-1.152-4.384-2.592-5.664-4.32-1.216-1.792-1.824-4.064-1.824-6.816 0-3.328.832-6.176 2.496-8.544 1.728-2.432 4.096-4.32 7.104-5.664 3.072-1.344 6.656-2.016 10.752-2.016 3.584 0 6.976.576 10.176 1.728 3.2 1.088 6.112 2.88 8.736 5.376L320.677 98c-2.56-1.984-4.992-3.424-7.296-4.32-2.304-.96-4.64-1.44-7.008-1.44-1.344 0-2.624.16-3.84.48-1.152.32-2.112.864-2.88 1.632-.704.704-1.056 1.728-1.056 3.072 0 1.216.32 2.176.96 2.88.704.64 1.728 1.216 3.072 1.728 1.408.512 3.104 1.088 5.088 1.728 4.032 1.152 7.424 2.336 10.176 3.552 2.816 1.216 4.928 2.72 6.336 4.512 1.408 1.728 2.112 4.128 2.112 7.2 0 4.992-1.824 8.896-5.472 11.712-3.648 2.816-8.544 4.224-14.688 4.224Zm28.813-71.04h12.864v53.952c0 2.304.384 3.872 1.152 4.704.768.768 1.824 1.152 3.168 1.152 1.024 0 2.08-.128 3.168-.384s2.048-.576 2.88-.96l1.728 9.792c-1.728.832-3.744 1.472-6.048 1.92-2.304.448-4.384.672-6.24.672-4.032 0-7.168-1.056-9.408-3.168-2.176-2.176-3.264-5.248-3.264-9.216V63.92Zm50.341 1.92h13.44L423.831 134h-13.632l-6.336-16.992h-23.808L373.815 134h-13.632l25.152-68.16Zm16.128 41.856-9.408-28.128-9.792 28.128h19.2ZM431.307 134V65.84h13.248V134h-13.248Z" fill="#d2fef0"/><path stroke="#d2fef0" stroke-width="16" d="M195 8H0M195 192H0M8 200V5M340 192h195M340 8h195M527 0v195"/></svg>
