<svg width="535" height="200" viewBox="0 0 535 200" fill="none" xmlns="http://www.w3.org/2000/svg">
<path d="M90.4321 134V65.84H103.68V122.384H138.432V134H90.4321ZM168.2 134.96C164.168 134.96 160.52 134.288 157.256 132.944C153.992 131.536 151.208 129.648 148.904 127.28C146.6 124.848 144.808 122.096 143.528 119.024C142.312 115.888 141.704 112.592 141.704 109.136C141.704 104.336 142.76 99.952 144.872 95.984C147.048 92.016 150.12 88.848 154.088 86.48C158.12 84.048 162.856 82.832 168.296 82.832C173.8 82.832 178.504 84.048 182.408 86.48C186.312 88.848 189.288 92.016 191.336 95.984C193.448 99.888 194.504 104.112 194.504 108.656C194.504 109.424 194.472 110.224 194.408 111.056C194.344 111.824 194.28 112.464 194.216 112.976H155.336C155.592 115.536 156.328 117.776 157.544 119.696C158.824 121.616 160.424 123.088 162.344 124.112C164.328 125.072 166.44 125.552 168.68 125.552C171.24 125.552 173.64 124.944 175.88 123.728C178.184 122.448 179.752 120.784 180.584 118.736L191.624 121.808C190.408 124.368 188.648 126.64 186.344 128.624C184.104 130.608 181.448 132.176 178.376 133.328C175.304 134.416 171.912 134.96 168.2 134.96ZM155.048 104.816H181.352C181.096 102.256 180.36 100.048 179.144 98.192C177.992 96.272 176.456 94.8 174.536 93.776C172.616 92.688 170.472 92.144 168.104 92.144C165.8 92.144 163.688 92.688 161.768 93.776C159.912 94.8 158.376 96.272 157.16 98.192C156.008 100.048 155.304 102.256 155.048 104.816ZM222.02 134.288C218.692 134.288 215.62 133.648 212.804 132.368C210.052 131.024 207.652 129.168 205.604 126.8C203.62 124.432 202.084 121.712 200.996 118.64C199.908 115.568 199.364 112.304 199.364 108.848C199.364 105.2 199.94 101.808 201.092 98.672C202.244 95.536 203.844 92.784 205.892 90.416C208.004 87.984 210.468 86.128 213.284 84.848C216.164 83.504 219.332 82.832 222.788 82.832C226.692 82.832 230.116 83.728 233.06 85.52C236.004 87.248 238.436 89.584 240.356 92.528V83.696H251.588V131.6C251.588 136.592 250.372 140.848 247.94 144.368C245.572 147.952 242.276 150.672 238.052 152.528C233.828 154.448 229.028 155.408 223.652 155.408C218.212 155.408 213.604 154.48 209.828 152.624C206.052 150.832 202.82 148.272 200.132 144.944L207.14 138.128C209.06 140.496 211.46 142.352 214.34 143.696C217.284 145.04 220.388 145.712 223.652 145.712C226.404 145.712 228.9 145.2 231.14 144.176C233.444 143.216 235.268 141.68 236.612 139.568C238.02 137.52 238.724 134.864 238.724 131.6V125.264C237.06 128.144 234.692 130.384 231.62 131.984C228.612 133.52 225.412 134.288 222.02 134.288ZM226.34 124.016C227.748 124.016 229.092 123.792 230.372 123.344C231.652 122.896 232.836 122.288 233.924 121.52C235.012 120.752 235.972 119.856 236.804 118.832C237.636 117.744 238.276 116.656 238.724 115.568V103.568C237.956 101.584 236.868 99.856 235.46 98.384C234.116 96.912 232.58 95.792 230.852 95.024C229.188 94.192 227.428 93.776 225.572 93.776C223.588 93.776 221.796 94.192 220.196 95.024C218.596 95.856 217.22 97.04 216.068 98.576C214.916 100.048 214.02 101.712 213.38 103.568C212.804 105.36 212.516 107.248 212.516 109.232C212.516 111.28 212.868 113.2 213.572 114.992C214.276 116.784 215.236 118.352 216.452 119.696C217.732 121.04 219.204 122.096 220.868 122.864C222.596 123.632 224.42 124.016 226.34 124.016ZM263.184 134V83.696H276.048V134H263.184ZM263.184 76.688V63.92H276.048V76.688H263.184ZM306.181 134.96C301.893 134.96 297.797 134.256 293.893 132.848C289.989 131.44 286.629 129.36 283.813 126.608L288.421 118.256C291.429 120.688 294.373 122.48 297.253 123.632C300.197 124.784 303.013 125.36 305.701 125.36C308.197 125.36 310.181 124.912 311.653 124.016C313.189 123.12 313.957 121.776 313.957 119.984C313.957 118.768 313.541 117.84 312.709 117.2C311.877 116.496 310.661 115.888 309.061 115.376C307.525 114.864 305.637 114.288 303.397 113.648C299.685 112.432 296.581 111.248 294.085 110.096C291.589 108.944 289.701 107.504 288.421 105.776C287.205 103.984 286.597 101.712 286.597 98.96C286.597 95.632 287.429 92.784 289.093 90.416C290.821 87.984 293.189 86.096 296.197 84.752C299.269 83.408 302.853 82.736 306.949 82.736C310.533 82.736 313.925 83.312 317.125 84.464C320.325 85.552 323.237 87.344 325.861 89.84L320.677 98C318.117 96.016 315.685 94.576 313.381 93.68C311.077 92.72 308.741 92.24 306.373 92.24C305.029 92.24 303.749 92.4 302.533 92.72C301.381 93.04 300.421 93.584 299.653 94.352C298.949 95.056 298.597 96.08 298.597 97.424C298.597 98.64 298.917 99.6 299.557 100.304C300.261 100.944 301.285 101.52 302.629 102.032C304.037 102.544 305.733 103.12 307.717 103.76C311.749 104.912 315.141 106.096 317.893 107.312C320.709 108.528 322.821 110.032 324.229 111.824C325.637 113.552 326.341 115.952 326.341 119.024C326.341 124.016 324.517 127.92 320.869 130.736C317.221 133.552 312.325 134.96 306.181 134.96ZM334.994 63.92H347.858V117.872C347.858 120.176 348.242 121.744 349.01 122.576C349.778 123.344 350.834 123.728 352.178 123.728C353.202 123.728 354.258 123.6 355.346 123.344C356.434 123.088 357.394 122.768 358.226 122.384L359.954 132.176C358.226 133.008 356.21 133.648 353.906 134.096C351.602 134.544 349.522 134.768 347.666 134.768C343.634 134.768 340.498 133.712 338.258 131.6C336.082 129.424 334.994 126.352 334.994 122.384V63.92ZM385.335 65.84H398.775L423.831 134H410.199L403.863 117.008H380.055L373.815 134H360.183L385.335 65.84ZM401.463 107.696L392.055 79.568L382.263 107.696H401.463ZM431.307 134V65.84H444.555V134H431.307Z" fill="white"/>
<line x1="195" y1="8" y2="8" stroke="white" stroke-width="16"/>
<line x1="195" y1="192" y2="192" stroke="white" stroke-width="16"/>
<line x1="8" y1="200" x2="8" y2="5" stroke="white" stroke-width="16"/>
<line x1="340" y1="192" x2="535" y2="192" stroke="white" stroke-width="16"/>
<line x1="340" y1="8" x2="535" y2="8" stroke="white" stroke-width="16"/>
<line x1="527" x2="527" y2="195" stroke="white" stroke-width="16"/>
<path d="M90.4321 134V65.84H103.68V122.384H138.432V134H90.4321ZM168.2 134.96C164.168 134.96 160.52 134.288 157.256 132.944C153.992 131.536 151.208 129.648 148.904 127.28C146.6 124.848 144.808 122.096 143.528 119.024C142.312 115.888 141.704 112.592 141.704 109.136C141.704 104.336 142.76 99.952 144.872 95.984C147.048 92.016 150.12 88.848 154.088 86.48C158.12 84.048 162.856 82.832 168.296 82.832C173.8 82.832 178.504 84.048 182.408 86.48C186.312 88.848 189.288 92.016 191.336 95.984C193.448 99.888 194.504 104.112 194.504 108.656C194.504 109.424 194.472 110.224 194.408 111.056C194.344 111.824 194.28 112.464 194.216 112.976H155.336C155.592 115.536 156.328 117.776 157.544 119.696C158.824 121.616 160.424 123.088 162.344 124.112C164.328 125.072 166.44 125.552 168.68 125.552C171.24 125.552 173.64 124.944 175.88 123.728C178.184 122.448 179.752 120.784 180.584 118.736L191.624 121.808C190.408 124.368 188.648 126.64 186.344 128.624C184.104 130.608 181.448 132.176 178.376 133.328C175.304 134.416 171.912 134.96 168.2 134.96ZM155.048 104.816H181.352C181.096 102.256 180.36 100.048 179.144 98.192C177.992 96.272 176.456 94.8 174.536 93.776C172.616 92.688 170.472 92.144 168.104 92.144C165.8 92.144 163.688 92.688 161.768 93.776C159.912 94.8 158.376 96.272 157.16 98.192C156.008 100.048 155.304 102.256 155.048 104.816ZM222.02 134.288C218.692 134.288 215.62 133.648 212.804 132.368C210.052 131.024 207.652 129.168 205.604 126.8C203.62 124.432 202.084 121.712 200.996 118.64C199.908 115.568 199.364 112.304 199.364 108.848C199.364 105.2 199.94 101.808 201.092 98.672C202.244 95.536 203.844 92.784 205.892 90.416C208.004 87.984 210.468 86.128 213.284 84.848C216.164 83.504 219.332 82.832 222.788 82.832C226.692 82.832 230.116 83.728 233.06 85.52C236.004 87.248 238.436 89.584 240.356 92.528V83.696H251.588V131.6C251.588 136.592 250.372 140.848 247.94 144.368C245.572 147.952 242.276 150.672 238.052 152.528C233.828 154.448 229.028 155.408 223.652 155.408C218.212 155.408 213.604 154.48 209.828 152.624C206.052 150.832 202.82 148.272 200.132 144.944L207.14 138.128C209.06 140.496 211.46 142.352 214.34 143.696C217.284 145.04 220.388 145.712 223.652 145.712C226.404 145.712 228.9 145.2 231.14 144.176C233.444 143.216 235.268 141.68 236.612 139.568C238.02 137.52 238.724 134.864 238.724 131.6V125.264C237.06 128.144 234.692 130.384 231.62 131.984C228.612 133.52 225.412 134.288 222.02 134.288ZM226.34 124.016C227.748 124.016 229.092 123.792 230.372 123.344C231.652 122.896 232.836 122.288 233.924 121.52C235.012 120.752 235.972 119.856 236.804 118.832C237.636 117.744 238.276 116.656 238.724 115.568V103.568C237.956 101.584 236.868 99.856 235.46 98.384C234.116 96.912 232.58 95.792 230.852 95.024C229.188 94.192 227.428 93.776 225.572 93.776C223.588 93.776 221.796 94.192 220.196 95.024C218.596 95.856 217.22 97.04 216.068 98.576C214.916 100.048 214.02 101.712 213.38 103.568C212.804 105.36 212.516 107.248 212.516 109.232C212.516 111.28 212.868 113.2 213.572 114.992C214.276 116.784 215.236 118.352 216.452 119.696C217.732 121.04 219.204 122.096 220.868 122.864C222.596 123.632 224.42 124.016 226.34 124.016ZM263.184 134V83.696H276.048V134H263.184ZM263.184 76.688V63.92H276.048V76.688H263.184ZM306.181 134.96C301.893 134.96 297.797 134.256 293.893 132.848C289.989 131.44 286.629 129.36 283.813 126.608L288.421 118.256C291.429 120.688 294.373 122.48 297.253 123.632C300.197 124.784 303.013 125.36 305.701 125.36C308.197 125.36 310.181 124.912 311.653 124.016C313.189 123.12 313.957 121.776 313.957 119.984C313.957 118.768 313.541 117.84 312.709 117.2C311.877 116.496 310.661 115.888 309.061 115.376C307.525 114.864 305.637 114.288 303.397 113.648C299.685 112.432 296.581 111.248 294.085 110.096C291.589 108.944 289.701 107.504 288.421 105.776C287.205 103.984 286.597 101.712 286.597 98.96C286.597 95.632 287.429 92.784 289.093 90.416C290.821 87.984 293.189 86.096 296.197 84.752C299.269 83.408 302.853 82.736 306.949 82.736C310.533 82.736 313.925 83.312 317.125 84.464C320.325 85.552 323.237 87.344 325.861 89.84L320.677 98C318.117 96.016 315.685 94.576 313.381 93.68C311.077 92.72 308.741 92.24 306.373 92.24C305.029 92.24 303.749 92.4 302.533 92.72C301.381 93.04 300.421 93.584 299.653 94.352C298.949 95.056 298.597 96.08 298.597 97.424C298.597 98.64 298.917 99.6 299.557 100.304C300.261 100.944 301.285 101.52 302.629 102.032C304.037 102.544 305.733 103.12 307.717 103.76C311.749 104.912 315.141 106.096 317.893 107.312C320.709 108.528 322.821 110.032 324.229 111.824C325.637 113.552 326.341 115.952 326.341 119.024C326.341 124.016 324.517 127.92 320.869 130.736C317.221 133.552 312.325 134.96 306.181 134.96ZM334.994 63.92H347.858V117.872C347.858 120.176 348.242 121.744 349.01 122.576C349.778 123.344 350.834 123.728 352.178 123.728C353.202 123.728 354.258 123.6 355.346 123.344C356.434 123.088 357.394 122.768 358.226 122.384L359.954 132.176C358.226 133.008 356.21 133.648 353.906 134.096C351.602 134.544 349.522 134.768 347.666 134.768C343.634 134.768 340.498 133.712 338.258 131.6C336.082 129.424 334.994 126.352 334.994 122.384V63.92ZM385.335 65.84H398.775L423.831 134H410.199L403.863 117.008H380.055L373.815 134H360.183L385.335 65.84ZM401.463 107.696L392.055 79.568L382.263 107.696H401.463ZM431.307 134V65.84H444.555V134H431.307Z" fill="white"/>
<line x1="195" y1="8" y2="8" stroke="white" stroke-width="16"/>
<line x1="195" y1="192" y2="192" stroke="white" stroke-width="16"/>
<line x1="8" y1="200" x2="8" y2="5" stroke="white" stroke-width="16"/>
<line x1="340" y1="192" x2="535" y2="192" stroke="white" stroke-width="16"/>
<line x1="340" y1="8" x2="535" y2="8" stroke="white" stroke-width="16"/>
<line x1="527" x2="527" y2="195" stroke="white" stroke-width="16"/>
</svg>
